<svg width="100%" height="100%" viewBox="0 0 32 32" fill="none" xmlns="http://www.w3.org/2000/svg">
    <path d="M20.5 17.042L20.2451 17.1855L16.2451 19.4355L16 19.5732L15.7549 19.4355L11.7549 17.1855L11.5 17.042V11.958L11.7549 11.8145L15.7549 9.56445L16 9.42676L16.2451 9.56445L20.2451 11.8145L20.5 11.958V17.042Z" fill="#FEFDF8" stroke="#1368AA"/>
    <path d="M29.5 23.5371L29.252 23.6816L26.252 25.4316L26 25.5791L25.748 25.4316L22.748 23.6816L22.5 23.5371V19.4629L22.748 19.3184L25.748 17.5684L26 17.4209L26.252 17.5684L29.252 19.3184L29.5 19.4629V23.5371Z" fill="#FEFDF8" stroke="#1368AA"/>
    <path d="M9.5 23.5371L9.25195 23.6816L6.25195 25.4316L6 25.5791L5.74805 25.4316L2.74805 23.6816L2.5 23.5371V19.4629L2.74805 19.3184L5.74805 17.5684L6 17.4209L6.25195 17.5684L9.25195 19.3184L9.5 19.4629V23.5371Z" fill="#FEFDF8" stroke="#1368AA"/>
</svg>
