<svg width="100%" height="100%" viewBox="0 0 32 32" fill="none" xmlns="http://www.w3.org/2000/svg">
    <path fill-rule="evenodd" clip-rule="evenodd" d="M18 15L17.2565 15.5204L17.4142 16.4142L16.5204 16.2565L16 17L15.4796 16.2565L14.5858 16.4142L14.7435 15.5204L14 15L14.7435 14.4796L14.5858 13.5858L15.4796 13.7435L16 13L16.5204 13.7435L17.4142 13.5858L17.2565 14.4796L18 15ZM13.2565 18.5204L14 18L13.2565 17.4796L13.4142 16.5858L12.5204 16.7435L12 16L11.4796 16.7435L10.5858 16.5858L10.7435 17.4796L10 18L10.7435 18.5204L10.5858 19.4142L11.4796 19.2565L12 20L12.5204 19.2565L13.4142 19.4142L13.2565 18.5204ZM17.2565 21.5204L18 21L17.2565 20.4796L17.4142 19.5858L16.5204 19.7435L16 19L15.4796 19.7435L14.5858 19.5858L14.7435 20.4796L14 21L14.7435 21.5204L14.5858 22.4142L15.4796 22.2565L16 23L16.5204 22.2565L17.4142 22.4142L17.2565 21.5204ZM21.2565 18.5204L22 18L21.2565 17.4796L21.4142 16.5858L20.5204 16.7435L20 16L19.4796 16.7435L18.5858 16.5858L18.7435 17.4796L18 18L18.7435 18.5204L18.5858 19.4142L19.4796 19.2565L20 20L20.5204 19.2565L21.4142 19.4142L21.2565 18.5204Z" fill="#9DCEE2"/>
    <path d="M19.6021 5.48645C20.5601 2.9245 23.3252 1.46214 26.02 2.18469C26.3226 2.26583 26.6122 2.37207 26.8872 2.49914C25.8146 2.67334 24.8946 3.46376 24.6108 4.5841C24.4706 5.13806 24.5061 5.69522 24.6812 6.19739C24.6838 6.20764 24.6852 6.21841 24.688 6.22864L24.7612 6.44641C24.8454 6.66067 24.9631 6.86238 25.1108 7.04016L25.2671 7.2091C25.344 7.28373 25.427 7.35192 25.5142 7.41418C25.8323 7.68587 26.215 7.89332 26.6479 8.00305C28.0027 8.34585 29.3723 7.63974 29.9116 6.39856C30.0531 7.16142 30.0319 7.96731 29.8179 8.76672C29.3747 10.4218 28.2048 11.687 26.7446 12.3146C25.718 11.4925 24.4166 10.9991 22.9995 10.9991C22.9326 10.9992 22.8657 11.0018 22.7993 11.004C22.7325 10.6738 22.6478 10.3499 22.5493 10.0323C22.8966 10.3052 23.3031 10.5143 23.7563 10.6359C24.9092 10.945 26.0826 10.6151 26.9038 9.86438C26.8238 9.86685 26.7437 9.86842 26.6636 9.86633C26.1395 9.85255 25.6222 9.74122 25.1401 9.53821L24.937 9.44543C24.3981 9.18378 23.9197 8.80961 23.5366 8.34875C23.2016 7.94542 22.945 7.48185 22.7798 6.98547L22.7153 6.7716C22.5566 6.19353 22.5229 5.58735 22.6167 4.99524C22.6372 4.86602 22.6645 4.73773 22.6968 4.61145C22.0697 5.05035 21.5873 5.70495 21.3735 6.50305C21.2969 6.78953 21.2598 7.07723 21.2583 7.36047C20.7856 6.66844 20.229 6.03869 19.6021 5.48645Z" fill="#FFB703"/>
    <path fill-rule="evenodd" clip-rule="evenodd" d="M9 23.3473C4.91752 21.8163 2 17.7615 2 13C2 6.92487 6.74949 2 12.6083 2C17.469 2 21.5661 5.38976 22.821 10.0139C22.9626 10.0047 23.1054 10 23.2493 10C26.9776 10 30 13.134 30 17C30 20.6028 27.375 23.57 24 23.9572V21.937C26.2205 21.5615 28 19.5486 28 17C28 14.1696 25.8053 12 23.2493 12C22.5272 12 21.8339 12.1732 21.2108 12.4855C21.1791 11.9037 21.0937 11.3367 20.9599 10.7899L20.9569 10.7911C20.0091 6.85004 16.5839 4 12.6083 4C7.92179 4 4 7.96046 4 13C4 16.6616 6.0703 19.7535 9 21.1706V23.3473Z" fill="#9DCEE2"/>
    <path fill-rule="evenodd" clip-rule="evenodd" d="M12.5021 28.0021C12.7442 28.0021 13.0022 27.7921 13.0021 27.456C13.0021 27.272 12.9389 26.9263 12.7435 26.4168C12.6656 26.2136 12.5746 26.0045 12.4744 25.7938C12.1753 26.4437 12.0015 27.0277 12.0017 27.456C12.0018 27.7921 12.2599 28.0021 12.5021 28.0021ZM11.2923 23.7572C11.9029 22.7302 12.5002 22 12.5002 22C12.5002 22 13.0699 22.7554 13.6655 23.7778C14.318 24.8977 15.0018 26.3379 15.0021 27.456C15.0025 28.8622 13.8835 30.0021 12.5027 30.0021C11.1218 30.0021 10.0021 28.8622 10.0017 27.456C10.0013 26.229 10.654 24.8309 11.2923 23.7572Z" fill="#4091C9"/>
    <path fill-rule="evenodd" clip-rule="evenodd" d="M19.5021 28.0021C19.7442 28.0021 20.0022 27.7921 20.0021 27.456C20.0021 27.272 19.9389 26.9263 19.7435 26.4168C19.6656 26.2136 19.5746 26.0045 19.4744 25.7938C19.1753 26.4437 19.0015 27.0277 19.0017 27.456C19.0018 27.7921 19.2599 28.0021 19.5021 28.0021ZM18.2923 23.7572C18.9029 22.7302 19.5002 22 19.5002 22C19.5002 22 20.0699 22.7554 20.6655 23.7778C21.318 24.8977 22.0018 26.3379 22.0021 27.456C22.0025 28.8622 20.8835 30.0021 19.5027 30.0021C18.1218 30.0021 17.0021 28.8622 17.0017 27.456C17.0013 26.229 17.654 24.8309 18.2923 23.7572Z" fill="#4091C9"/>
</svg>
