<svg width="100%" height="100%" viewBox="0 0 32 32" fill="none" xmlns="http://www.w3.org/2000/svg">
<path d="M23.1685 2.00977C26.9739 2.20254 30.0005 5.34876 30.0005 9.20215L29.9907 9.57227C29.9075 11.2157 29.2721 12.7129 28.2681 13.8848C27.9539 13.2538 27.5482 12.6769 27.0669 12.1719C27.654 11.3295 28.0005 10.3067 28.0005 9.20215C28.0005 6.32919 25.6713 4.00013 22.7983 4C21.4844 4 20.2843 4.48748 19.3687 5.29102C18.8428 4.85613 18.2727 4.47262 17.6646 4.15137C18.971 2.82362 20.7885 2 22.7983 2L23.1685 2.00977Z" fill="#FFB703"/>
<path d="M14.375 24C14.3931 24.0251 15.8756 26.0809 15.876 27.4092L15.8682 27.5723C15.7914 28.3742 15.1525 29 14.376 29L14.2227 28.9922C13.5168 28.9162 12.9559 28.3208 12.8838 27.5723L12.876 27.4092C12.8755 25.9091 14.375 24 14.375 24ZM19.3896 24C19.4025 24.0178 20.8902 26.0785 20.8906 27.4092L20.8828 27.5723C20.806 28.3742 20.1671 29 19.3906 29L19.2373 28.9922C18.5316 28.9161 17.9706 28.3207 17.8984 27.5723L17.8906 27.4092C17.8902 25.9091 19.3896 24 19.3896 24ZM11.5 19C11.5002 19.0002 13.0006 21.0728 13.001 22.4092L12.9932 22.5723C12.9164 23.3741 12.2783 23.9998 11.502 24L11.3486 23.9922C10.6428 23.9162 10.0809 23.3208 10.0088 22.5723L10.001 22.4092C10.0005 20.9091 11.5 19 11.5 19ZM16.5 19C16.5002 19.0002 18.0006 21.0728 18.001 22.4092L17.9932 22.5723C17.9164 23.3741 17.2783 23.9998 16.502 24L16.3486 23.9922C15.6428 23.9162 15.0809 23.3208 15.0088 22.5723L15.001 22.4092C15.0005 20.9091 16.5 19 16.5 19ZM21.5 19C21.5002 19.0002 23.0006 21.0728 23.001 22.4092L22.9932 22.5723C22.9164 23.3741 22.2783 23.9998 21.502 24L21.3486 23.9922C20.6428 23.9162 20.0809 23.3208 20.0088 22.5723L20.001 22.4092C20.0005 20.9091 21.5 19 21.5 19ZM13.1543 2.01465C17.7736 2.2575 21.6135 5.56396 22.8213 10.0137C22.9629 10.0045 23.1061 10 23.25 10L23.5967 10.0088C27.1636 10.1962 30 13.2548 30 17L29.9912 17.3604C29.8406 20.4388 27.772 22.993 25 23.7627V21.6465C26.7313 20.9215 28 19.1518 28 17C28 14.1699 25.8057 12.0004 23.25 12C22.5279 12 21.8341 12.173 21.2109 12.4854C21.1792 11.9036 21.0938 11.3368 20.96 10.79L20.957 10.791C20.0092 6.85002 16.5839 4.00005 12.6084 4C7.92191 4 4 7.96046 4 13C4 16.2291 5.6102 19.0156 8 20.6006V22.9102C4.44944 21.1318 2 17.3627 2 13C2 6.92487 6.7496 2 12.6084 2L13.1543 2.01465Z" fill="#4091C9"/>
</svg>
