<svg width="100%" height="100%" viewBox="0 0 32 32" fill="none" xmlns="http://www.w3.org/2000/svg">
    <path fill-rule="evenodd" clip-rule="evenodd" d="M30.2155 8.76695C30.4289 7.96995 30.4516 7.16679 30.3116 6.40596C29.7705 7.64418 28.398 8.34514 27.0449 8.00215C26.6022 7.88994 26.2108 7.67848 25.8886 7.39758C25.7482 7.2941 25.6205 7.17372 25.5084 7.03882C25.3115 6.8019 25.1675 6.52564 25.0859 6.22853L25.0776 6.19737C24.9028 5.69531 24.8681 5.1382 25.0083 4.58438C25.292 3.46358 26.212 2.67216 27.2849 2.49808C27.0098 2.37102 26.7203 2.2656 26.4177 2.18447C23.7235 1.46207 20.9588 2.92338 20 5.48417C20.6264 6.03556 21.1832 6.66411 21.6558 7.35498C21.6578 7.07346 21.6953 6.78754 21.7715 6.50283C21.9851 5.70519 22.4667 5.05152 23.0932 4.61257C23.061 4.73859 23.0347 4.86627 23.0142 4.99523C22.9204 5.58746 22.954 6.19291 23.1127 6.77111C23.2715 7.34931 23.5518 7.88692 23.9349 8.348C24.318 8.80908 24.7951 9.18299 25.3342 9.44473C25.8733 9.70648 26.462 9.85003 27.0611 9.86577C27.1421 9.8679 27.223 9.86769 27.3038 9.86515C26.4826 10.6161 25.308 10.9446 24.1548 10.6354C23.7035 10.5144 23.2982 10.3072 22.9518 10.0361C23.0495 10.3517 23.132 10.6739 23.1984 11.002C23.2646 10.9999 23.3311 10.9988 23.3978 10.9988C24.8162 10.9988 26.1196 11.4913 27.1466 12.3147C28.6052 11.6869 29.7726 10.4209 30.2155 8.76695Z" fill="#FFB703"/>
    <path fill-rule="evenodd" clip-rule="evenodd" d="M9 23.3473C4.91752 21.8163 2 17.7615 2 13C2 6.92487 6.74949 2 12.6083 2C17.469 2 21.5661 5.38976 22.821 10.0139C22.9626 10.0047 23.1054 10 23.2493 10C26.9776 10 30 13.134 30 17C30 20.866 26.9776 24 23.2493 24C23.1658 24 23.0827 23.9984 23 23.9953V22H23.3029V21.9996C25.8359 21.9695 28 19.8105 28 17C28 14.1696 25.8053 12 23.2493 12C22.5272 12 21.8339 12.1732 21.2108 12.4855C21.1791 11.9037 21.0937 11.3367 20.9599 10.7899L20.9569 10.7911C20.0091 6.85004 16.5839 4 12.6083 4C7.92179 4 4 7.96046 4 13C4 16.6616 6.0703 19.7535 9 21.1706V23.3473Z" fill="#4091C9"/>
    <path fill-rule="evenodd" clip-rule="evenodd" d="M17.168 16.4453L18.8321 17.5547L15.8685 22H20.9557L15.4773 29.5855L13.856 28.4145L17.0442 24H12.1315L17.168 16.4453Z" fill="#FFB703"/>
    <path fill-rule="evenodd" clip-rule="evenodd" d="M20.3609 26.9244C20.1533 27.4108 20.0009 27.9308 20.001 28.4091C20.0013 29.2877 20.6731 30 21.5015 30C22.33 30 23.0013 29.2877 23.001 28.4091C23.0009 27.9619 22.8327 27.4321 22.609 26.9252C22.1643 25.9175 21.5 25 21.5 25C21.5 25 20.8044 25.8856 20.3609 26.9244Z" fill="#4091C9"/>
    <path fill-rule="evenodd" clip-rule="evenodd" d="M9.36092 26.9244C9.15328 27.4108 9.0009 27.9308 9.00105 28.4091C9.00132 29.2877 9.67311 30 10.5015 30C11.33 30 12.0013 29.2877 12.001 28.4091C12.0009 27.9619 11.8327 27.4321 11.609 26.9252C11.1643 25.9175 10.5 25 10.5 25C10.5 25 9.80441 25.8856 9.36092 26.9244Z" fill="#4091C9"/>
</svg>