<svg width="100%" height="100%" viewBox="0 0 32 32" fill="none" xmlns="http://www.w3.org/2000/svg">
    <path fill-rule="evenodd" clip-rule="evenodd" d="M24.5556 21.4547C24.5556 24.9763 21.1171 28.5 16 28.5C10.8829 28.5 7.44444 24.9763 7.44444 21.4547C7.44444 17.802 9.7674 13.253 12.4977 9.29288C13.7318 7.50299 14.9703 5.94386 15.9389 4.7921C16.9258 6.03386 18.2065 7.72422 19.4825 9.6319C20.8129 11.6209 22.1069 13.7998 23.0604 15.9203C24.0313 18.0797 24.5556 19.9758 24.5556 21.4547ZM5 21.4547C5 14.6587 11.2715 6.46371 14.3436 2.85704C15.3401 1.68713 16 1 16 1C16 1 16.6322 1.71471 17.5934 2.91193C20.6419 6.70874 27 15.3584 27 21.4547C27 26.7264 22.0751 31 16 31C9.92487 31 5 26.7264 5 21.4547ZM10.498 17.25H13.1277C12.6329 18.4049 12.3333 19.5002 12.3333 20.4319C12.3333 21.8626 13.7018 23.5 16 23.5V26C12.6249 26 9.88889 23.5071 9.88889 20.4319C9.88889 19.4058 10.1223 18.3249 10.498 17.25Z" fill="#4091C9"/>
</svg>
